<svg width="22" height="21" viewBox="0 0 22 21" fill="none" xmlns="http://www.w3.org/2000/svg">
<path d="M1.54649 20.9366C1.32429 20.9366 1.11444 20.85 0.953965 20.6892C0.79349 20.5284 0.702966 20.3182 0.702966 20.0956C0.702966 19.8688 0.789376 19.6585 0.94985 19.4978L9.80888 10.5225L0.851097 1.65438C0.690622 1.4936 0.600098 1.28333 0.600098 1.0607C0.600098 0.833952 0.686507 0.62369 0.846982 0.462902C1.00746 0.302114 1.21731 0.211413 1.4395 0.211413C1.66581 0.211413 1.87567 0.297991 2.03614 0.458779L10.9898 9.33099L19.8447 0.351587C20.0052 0.190799 20.2151 0.100098 20.4372 0.100098C20.6636 0.100098 20.8734 0.186676 21.0339 0.347464C21.1944 0.508252 21.2849 0.722637 21.2849 0.945266C21.2849 1.17202 21.1985 1.38228 21.038 1.54307L12.1872 10.5142L21.1491 19.3906C21.3096 19.5513 21.4001 19.7616 21.4001 19.9842C21.4001 20.211 21.3137 20.4213 21.1532 20.582C20.9927 20.7428 20.7829 20.8335 20.5607 20.8335C20.3344 20.8335 20.1245 20.747 19.9641 20.5862L11.0022 11.714L2.15135 20.6851C1.99088 20.8459 1.78103 20.9366 1.55883 20.9366H1.54649Z" fill="white"/>
</svg>
