<svg width="32" height="32" viewBox="0 0 32 32" fill="none" xmlns="http://www.w3.org/2000/svg">
<path d="M11.5625 19.1065C11.5625 20.8265 12.8825 22.2131 14.5225 22.2131H17.8692C19.2958 22.2131 20.4558 20.9998 20.4558 19.5065C20.4558 17.8798 19.7492 17.3065 18.6958 16.9331L13.3225 15.0665C12.2692 14.6931 11.5625 14.1198 11.5625 12.4931C11.5625 10.9998 12.7225 9.78646 14.1492 9.78646H17.4958C19.1358 9.78646 20.4558 11.1731 20.4558 12.8931" stroke="#737791" stroke-width="1.5" stroke-linecap="round" stroke-linejoin="round"/>
<path d="M16 8V24" stroke="#737791" stroke-width="1.5" stroke-linecap="round" stroke-linejoin="round"/>
<path d="M20 29.3333H12C5.33335 29.3333 2.66669 26.6667 2.66669 20V12C2.66669 5.33333 5.33335 2.66667 12 2.66667H20C26.6667 2.66667 29.3334 5.33333 29.3334 12V20C29.3334 26.6667 26.6667 29.3333 20 29.3333Z" stroke="#737791" stroke-width="1.5" stroke-linecap="round" stroke-linejoin="round"/>
</svg>
