<svg xmlns="http://www.w3.org/2000/svg" width="32" height="32" viewBox="0 0 32 32" fill="none">
  <path d="M10.6666 2.6665V6.6665" stroke="#737791" stroke-width="1.5" stroke-miterlimit="10" stroke-linecap="round" stroke-linejoin="round"/>
  <path d="M21.3334 2.6665V6.6665" stroke="#737791" stroke-width="1.5" stroke-miterlimit="10" stroke-linecap="round" stroke-linejoin="round"/>
  <path d="M4.66663 12.1201H27.3333" stroke="#737791" stroke-width="1.5" stroke-miterlimit="10" stroke-linecap="round" stroke-linejoin="round"/>
  <path d="M25.6133 21.0267L20.8933 25.7467C20.7067 25.9334 20.5333 26.28 20.4933 26.5334L20.24 28.3334C20.1466 28.9867 20.6 29.4401 21.2533 29.3467L23.0533 29.0934C23.3066 29.0534 23.6666 28.88 23.84 28.6934L28.56 23.9734C29.3733 23.1601 29.76 22.2134 28.56 21.0134C27.3733 19.8267 26.4266 20.2134 25.6133 21.0267Z" stroke="#737791" stroke-width="1.5" stroke-miterlimit="10" stroke-linecap="round" stroke-linejoin="round"/>
  <path d="M24.9333 21.7065C25.3333 23.1465 26.4534 24.2665 27.8934 24.6665" stroke="#737791" stroke-width="1.5" stroke-miterlimit="10" stroke-linecap="round" stroke-linejoin="round"/>
  <path d="M16 29.3332H10.6667C6 29.3332 4 26.6665 4 22.6665V11.3332C4 7.33317 6 4.6665 10.6667 4.6665H21.3333C26 4.6665 28 7.33317 28 11.3332V15.9998" stroke="#737791" stroke-width="1.5" stroke-miterlimit="10" stroke-linecap="round" stroke-linejoin="round"/>
  <path d="M15.9939 18.2668H16.0059" stroke="#737791" stroke-width="2" stroke-linecap="round" stroke-linejoin="round"/>
  <path d="M11.0591 18.2668H11.0711" stroke="#737791" stroke-width="2" stroke-linecap="round" stroke-linejoin="round"/>
  <path d="M11.0591 22.2668H11.0711" stroke="#737791" stroke-width="2" stroke-linecap="round" stroke-linejoin="round"/>
</svg>