<svg width="28" height="27" viewBox="0 0 28 27" fill="none" xmlns="http://www.w3.org/2000/svg">
<path d="M26.8976 23.7381C26.0404 22.974 25.29 22.098 24.6665 21.1337C23.9858 19.8026 23.5778 18.349 23.4665 16.8581V12.467C23.4724 10.1253 22.623 7.8621 21.0778 6.10255C19.5327 4.34299 17.3982 3.20822 15.0754 2.91146V1.76479C15.0754 1.45007 14.9504 1.14823 14.7278 0.925692C14.5053 0.703149 14.2034 0.578125 13.8887 0.578125C13.574 0.578125 13.2722 0.703149 13.0496 0.925692C12.8271 1.14823 12.7021 1.45007 12.7021 1.76479V2.92924C10.4001 3.24739 8.29136 4.38902 6.76652 6.14266C5.24168 7.89631 4.40403 10.1431 4.40872 12.467V16.8581C4.29739 18.349 3.88941 19.8026 3.20872 21.1337C2.59617 22.0958 1.85778 22.9717 1.01316 23.7381C0.918343 23.8214 0.842352 23.924 0.790242 24.0389C0.738132 24.1539 0.711097 24.2786 0.710938 24.4048V25.6137C0.710938 25.8494 0.804588 26.0755 0.971287 26.2422C1.13799 26.4089 1.36408 26.5026 1.59983 26.5026H26.3109C26.5467 26.5026 26.7728 26.4089 26.9395 26.2422C27.1062 26.0755 27.1998 25.8494 27.1998 25.6137V24.4048C27.1997 24.2786 27.1726 24.1539 27.1205 24.0389C27.0684 23.924 26.9924 23.8214 26.8976 23.7381ZM2.55983 24.7248C3.38686 23.9259 4.11503 23.0306 4.72872 22.0581C5.58615 20.4505 6.08643 18.6768 6.19538 16.8581V12.467C6.16013 11.4253 6.33487 10.3871 6.7092 9.41427C7.08353 8.44147 7.64979 7.55393 8.37427 6.80453C9.09875 6.05512 9.96662 5.45916 10.9262 5.05215C11.8858 4.64513 12.9175 4.43538 13.9598 4.43538C15.0022 4.43538 16.0339 4.64513 16.9934 5.05215C17.953 5.45916 18.8209 6.05512 19.5454 6.80453C20.2699 7.55393 20.8361 8.44147 21.2105 9.41427C21.5848 10.3871 21.7595 11.4253 21.7243 12.467V16.8581C21.8332 18.6768 22.3335 20.4505 23.1909 22.0581C23.8046 23.0306 24.5328 23.9259 25.3598 24.7248H2.55983Z" fill="#737791"/>
</svg>
