<svg xmlns="http://www.w3.org/2000/svg" width="18" height="18" viewBox="0 0 18 18" fill="none">
  <path d="M16.0352 3.48959C16.6126 4.067 16.6221 5.0002 16.0565 5.58919L9.78152 12.1239C9.50623 12.4106 9.12842 12.5763 8.73105 12.5846L6.09374 12.64L6.14939 9.98742C6.15754 9.59909 6.316 9.22906 6.59144 8.95519L13.0068 2.57644C13.5931 1.99352 14.5405 1.99488 15.1251 2.57948L16.0352 3.48959Z" fill="#5D5FEF"/>
  <path opacity="0.3" d="M9.675 1.49997C10.0892 1.49997 10.425 1.83576 10.425 2.24997C10.425 2.66418 10.0892 2.99997 9.675 2.99997H4.5C3.67157 2.99997 3 3.67154 3 4.49997V13.5C3 14.3284 3.67157 15 4.5 15H13.5C14.3284 15 15 14.3284 15 13.5V9.74997C15 9.33576 15.3358 8.99997 15.75 8.99997C16.1642 8.99997 16.5 9.33576 16.5 9.74997V13.5C16.5 15.1568 15.1569 16.5 13.5 16.5H4.5C2.84315 16.5 1.5 15.1568 1.5 13.5V4.49997C1.5 2.84312 2.84315 1.49997 4.5 1.49997H9.675Z" fill="#5D5FEF"/>
</svg>